<svg width="80" height="80" viewBox="0 0 80 80" fill="none" xmlns="http://www.w3.org/2000/svg">
<path d="M39.5406 0.227375C39.02 0.402426 38.7815 0.647497 38.5646 1.22516C38.4127 1.64528 37.9572 2.32798 37.5451 2.7656C37.1547 3.20323 36.7209 3.71088 36.6125 3.90343C36.4172 4.25353 36.2871 4.27104 31.1683 4.20102L25.9193 4.131L25.0951 3.4483C24.119 2.60806 23.1213 2.24045 21.8199 2.24045C20.6053 2.24045 19.8027 2.48553 19.0002 3.08069C17.4602 4.23603 17.1349 6.10906 18.1977 7.71953L18.8267 8.6648L18.1326 9.89015C17.7639 10.5553 16.6143 12.3934 15.5732 13.9688C13.7729 16.7521 12.7969 18.6427 12.7969 19.3779C12.7969 19.6054 13.838 20.5857 15.5081 21.9161C17.8506 23.8066 18.3712 24.1392 19.3256 24.3668C21.1909 24.8219 22.3405 24.8745 24.0757 24.5769C27.1339 24.0517 29.5632 22.8089 30.6694 21.1634C31.7539 19.5529 31.6671 19.2728 28.4353 13.9863C26.1796 10.2753 24.5095 7.17687 24.5095 6.66923C24.5095 6.5817 27.5461 6.59921 32.1443 6.73924L36.3739 6.84428L36.8944 7.73703C37.2632 8.36721 37.6753 8.73482 38.2392 8.97989L39.0417 9.32999V18.1V26.8875L38.4561 27.0101C37.8054 27.1326 33.424 29.3732 33.4023 29.5833C33.4023 29.7233 36.4606 30.9137 38.8248 31.6839L40.4516 32.2266H44.9631C48.9757 32.2266 49.4963 32.1916 49.8867 31.9115C51.0146 31.0887 49.9084 29.7934 47.6093 29.2157C45.2234 28.6205 42.8809 27.4127 42.4687 26.5899C42.3169 26.2924 42.3169 23.3865 42.4037 17.9075L42.5772 9.68009L43.4665 9.15494C44.0304 8.82234 44.551 8.27969 44.898 7.71953L45.4403 6.79176H49.4746C51.687 6.79176 54.2464 6.84428 55.1574 6.89679C56.8058 7.01933 56.8275 7.01933 56.6974 7.47446C56.6323 7.71953 55.2224 10.1702 53.5523 12.9185C51.6653 16.0344 50.429 18.2751 50.2771 18.9052C50.0385 19.833 50.0602 19.973 50.5591 20.8133C51.1664 21.8986 52.4678 23.0189 53.8343 23.6666C55.0923 24.2618 57.8469 24.8219 59.5171 24.8219C61.968 24.8219 65.6119 23.7716 67.0001 22.6863C68.1497 21.7761 68.9739 20.4807 68.9739 19.5704C68.9739 18.7127 69.1257 18.9753 65.0046 12.5334C63.8334 10.7304 62.9007 9.11993 62.9007 8.96238C62.9007 8.80484 63.1393 8.3322 63.4213 7.94709C64.2672 6.79176 64.4624 5.93401 64.1153 5.00625C63.0525 2.13542 59.0616 1.33019 56.6974 3.51832L56.0033 4.131L50.6676 4.20102L45.3318 4.25353L45.0932 3.69337C44.8763 3.13321 43.5749 2.0654 43.1411 2.0654C42.9893 2.0654 42.9459 1.89035 43.0327 1.62778C43.4231 0.402426 41.3626 -0.420311 39.5406 0.227375ZM42.0566 4.28854C42.9242 4.93623 43.0544 5.51389 42.5121 6.2316C41.6445 7.38693 40.2564 7.40444 39.3237 6.28411C38.6513 5.47888 38.6947 5.28633 39.6707 4.4986C40.6685 3.69337 41.189 3.64086 42.0566 4.28854ZM22.9912 4.86621C23.8804 5.58391 23.772 6.37164 22.7092 6.80927C21.7331 7.24689 20.1281 6.05655 20.6703 5.30383C21.2343 4.4811 22.2754 4.28854 22.9912 4.86621ZM60.2111 4.8312C60.9703 5.23381 61.1655 6.33663 60.5365 6.61671C59.9509 6.86178 58.7145 6.84428 58.3892 6.5817C57.4565 5.82898 59.1049 4.23603 60.2111 4.8312ZM24.5745 13.4962C25.9627 15.6493 27.1123 17.6099 27.1123 17.8549V18.3101L21.9934 18.4326C19.1954 18.5026 16.8312 18.5026 16.7444 18.4501C16.4842 18.24 17.1566 16.6821 18.3278 14.7565C19.5858 12.7085 21.7331 9.61007 21.9067 9.61007C21.9717 9.59256 23.1647 11.3606 24.5745 13.4962ZM60.1678 10.8529C60.6449 11.5531 61.6644 13.0411 62.4669 14.1439C64.419 16.8396 64.8528 17.5574 64.8528 18.0825V18.5201H59.4303H54.0078L54.1379 18.03C54.3548 17.2773 55.2658 15.6143 56.5672 13.5312C57.2179 12.4634 58.0421 11.1505 58.3892 10.5904C58.7362 10.0477 59.0833 9.59256 59.17 9.59256C59.2568 9.59256 59.7123 10.1702 60.1678 10.8529Z" fill="#374151"/>
<path d="M55.0248 60.029C55.1549 60.134 55.567 60.9743 55.9357 61.8495C56.5431 63.2849 57.6059 65.403 60.4473 70.8296C61.9439 73.6654 61.8354 74.3306 59.9267 74.3306C59.1025 74.3306 58.929 74.2606 58.5602 73.7704C58.3433 73.4728 57.0202 70.9346 55.6104 68.1338C54.2222 65.333 52.8991 62.7423 52.6822 62.3922C52.0966 61.4469 52.14 60.5891 52.8341 60.029C53.2679 59.6789 53.5065 59.6089 54.0704 59.6964C54.4391 59.7664 54.8729 59.9065 55.0248 60.029Z" fill="#FFE000"/>
<path d="M48.6696 47.758C49.5806 48.7382 50.9687 51.1014 50.9687 51.6966C50.9687 52.3618 50.5132 52.6244 49.342 52.6244C48.7997 52.6244 48.4093 52.4843 48.0189 52.1867C47.2814 51.5741 45.915 49.1759 45.8933 48.4232C45.8716 47.898 45.98 47.7755 46.6307 47.5129C47.6936 47.0753 48.0623 47.1103 48.6696 47.758Z" fill="#FFE000"/>
<path d="M41.1649 39.9857C43.5725 41.8763 44.2449 42.489 44.2449 42.8566C44.2449 43.2417 44.1147 43.3292 43.2688 43.5042C42.5313 43.6618 42.1626 43.6618 41.7939 43.5042C41.0564 43.2067 35.7858 38.8479 35.7858 38.5503C35.7858 38.1127 36.675 37.57 37.3908 37.57C37.9548 37.57 38.5621 37.9727 41.1649 39.9857Z" fill="#FFE000"/>
<path d="M30.2982 33.0537C31.5562 33.4914 32.4889 34.104 32.5973 34.5242C32.6624 34.8042 32.5756 35.0143 32.4021 35.0668C32.0334 35.1719 29.3222 34.5242 28.6931 34.1566C28.2593 33.9115 28.2377 33.859 28.563 33.3688C28.91 32.7912 29.3438 32.7211 30.2982 33.0537Z" fill="#FFE000"/>
<path d="M12.2955 23.3682C11.9268 23.6483 12.1654 25.4688 12.6859 26.3441C13.5535 27.867 14.5079 28.5847 20.3859 32.1383C27.3484 36.3395 32.0768 40.3306 35.4604 44.8644C38.4319 48.838 40.4057 53.5819 41.1866 58.6059C41.6854 61.8268 41.9023 65.3103 41.9891 72.4173C42.0325 76.496 42.1192 79.8745 42.1626 79.9095C42.206 79.9445 50.4482 79.9795 60.4689 79.9795C76.6497 79.9795 78.797 79.9445 79.3826 79.6994C80.402 79.2618 80.2285 78.8242 78.2764 76.8811C75.5652 74.1853 71.5525 68.6187 67.8218 62.3869C64.1779 56.3127 63.05 54.6322 60.3605 51.3938C56.6732 46.9125 53.7017 44.1642 49.0166 40.9258C42.7265 36.5845 37.6728 34.1513 27.3267 30.5103C17.2842 26.9568 16.3732 26.5191 13.5102 23.7183C13.033 23.2632 12.5775 23.1232 12.2955 23.3682ZM30.2982 33.4336C31.5562 33.8713 32.4889 34.4839 32.5973 34.904C32.6624 35.1841 32.5756 35.3942 32.4021 35.4467C32.0334 35.5517 29.3222 34.904 28.6931 34.5364C28.2593 34.2914 28.2377 34.2389 28.563 33.7487C28.91 33.1711 29.3438 33.101 30.2982 33.4336ZM41.1649 40.3656C43.5725 42.2562 44.2449 42.8688 44.2449 43.2364C44.2449 43.6216 44.1147 43.7091 43.2688 43.8841C42.5313 44.0417 42.1626 44.0417 41.7939 43.8841C41.0564 43.5865 35.7858 39.2278 35.7858 38.9302C35.7858 38.4926 36.675 37.9499 37.3908 37.9499C37.9548 37.9499 38.5621 38.3525 41.1649 40.3656ZM48.6696 48.1378C49.5806 49.1181 50.9687 51.4813 50.9687 52.0765C50.9687 52.7417 50.5132 53.0042 49.342 53.0042C48.7997 53.0042 48.4093 52.8642 48.0189 52.5666C47.2814 51.9539 45.915 49.5558 45.8933 48.803C45.8716 48.2779 45.98 48.1554 46.6307 47.8928C47.6936 47.4552 48.0623 47.4902 48.6696 48.1378ZM55.0248 60.4089C55.1549 60.5139 55.567 61.3541 55.9357 62.2294C56.5431 63.6648 57.6059 65.7829 60.4473 71.2095C61.9439 74.0453 61.8354 74.7105 59.9267 74.7105C59.1025 74.7105 58.929 74.6405 58.5602 74.1503C58.3433 73.8527 57.0202 71.3145 55.6104 68.5137C54.2222 65.7129 52.8991 63.1222 52.6822 62.7721C52.0966 61.8268 52.14 60.969 52.8341 60.4089C53.2679 60.0588 53.5065 59.9888 54.0704 60.0763C54.4391 60.1463 54.8729 60.2863 55.0248 60.4089Z" fill="#374151"/>
<path d="M27.5742 60.1861C27.7694 60.3962 27.9213 60.7813 27.9213 61.0264C27.9213 61.289 27.1621 63.2145 26.2078 65.3326C25.2751 67.4332 24.1038 70.2165 23.5833 71.4944C23.0844 72.7723 22.4988 73.9801 22.3036 74.1727C21.7613 74.7153 20.5684 74.7853 19.8092 74.3127C19.2887 73.9801 19.2236 73.8401 19.332 73.2974C19.4622 72.6322 21.6529 67.1531 22.5855 65.1576C22.8892 64.5099 23.3664 63.2495 23.605 62.3743C24.1906 60.3612 24.7762 59.801 26.2728 59.801C27.032 59.801 27.3139 59.8886 27.5742 60.1861Z" fill="#FFE000"/>
<path d="M26.5548 47.7576C27.1404 48.2652 27.8996 50.1208 28.0731 51.4686C28.2249 52.694 27.9429 52.9741 26.4897 52.9741C25.0148 52.9741 24.928 52.8515 24.4509 49.8582C24.1689 48.1602 24.2557 47.8101 25.0582 47.565C25.9258 47.32 26.0776 47.3375 26.5548 47.7576Z" fill="#FFE000"/>
<path d="M21.1323 38.4974C22.9109 40.0554 24.4509 42.1735 24.4509 43.0662C24.4509 43.5914 23.5399 44.0465 22.5205 44.0465C21.9131 44.0465 21.783 43.9415 21.0889 42.8387C20.6768 42.156 19.896 41.0181 19.3537 40.2829C18.8115 39.5477 18.3777 38.795 18.3777 38.6024C18.3777 38.2698 19.2887 37.7622 19.9177 37.7447C20.1129 37.7447 20.6551 38.0773 21.1323 38.4974Z" fill="#FFE000"/>
<path d="M17.5535 35.1189C18.5946 35.9592 18.638 36.6769 17.6836 36.9395C17.1847 37.0795 16.9895 37.0445 16.5557 36.7119C15.6881 36.0467 15.4278 35.3815 15.8616 34.8564C16.0568 34.6113 16.3171 34.4187 16.4473 34.4187C16.5774 34.4187 17.0763 34.7338 17.5535 35.1189Z" fill="#FFE000"/>
<path d="M12.4129 31.6354C13.3673 32.3181 13.6709 32.7558 13.4974 33.1759C13.1938 33.9461 12.1743 33.7536 10.6777 32.6507C9.59324 31.8455 9.4631 31.5129 10.2006 31.2678C11.0682 30.9878 11.6321 31.0753 12.4129 31.6354Z" fill="#FFE000"/>
<path d="M7.83635 26.1214C8.22677 26.4365 8.27015 27.0141 7.96649 27.6968L7.7279 28.1694L7.09889 27.6793C6.40481 27.1542 6.25298 26.4189 6.70847 26.0513C7.05551 25.7713 7.42424 25.7888 7.83635 26.1214Z" fill="#FFE000"/>
<path d="M8.35064 22.4051C7.28783 22.8952 5.4008 24.2081 4.88024 24.8383C4.0994 25.801 3.60053 27.4815 3.77405 28.6193C4.05602 30.6149 5.22728 32.2604 8.71937 35.6039C10.8667 37.6694 11.9946 39.0348 13.1224 41.0129C15.1613 44.5314 15.7035 46.9996 15.3782 50.9908C15.2914 52.2336 14.9878 53.9316 14.7492 54.7544C14.272 56.3473 12.4284 60.7761 11.2788 63.0692C10.3678 64.9423 7.61318 69.5461 6.59375 70.9115C4.33799 73.9574 2.40759 76.3206 1.27971 77.4584C0.563939 78.1586 0 78.8938 0 79.0863C0 79.2789 0.23859 79.559 0.520559 79.7165C0.997738 79.9616 2.94984 79.9966 19.4776 79.9966C29.6068 80.0141 38.0008 79.9616 38.1527 79.8916C38.478 79.734 38.478 64.4171 38.1527 61.5813C37.2634 53.7041 35.0944 48.7676 30.0189 43.0085C27.4161 40.0326 20.8441 35.0437 15.3782 31.8578C12.8622 30.3874 11.2137 28.9519 10.3461 27.499C9.7171 26.4312 9.65203 26.1336 9.60865 24.4707C9.58696 23.4554 9.56528 22.5276 9.54359 22.4051C9.54359 22.1425 8.93627 22.1425 8.35064 22.4051ZM7.46135 26.5012C7.85177 26.8163 7.89515 27.394 7.59149 28.0767L7.3529 28.5493L6.72389 28.0592C6.02981 27.534 5.87798 26.7988 6.33347 26.4312C6.68051 26.1511 7.04924 26.1686 7.46135 26.5012ZM12.0379 32.0153C12.9923 32.698 13.2959 33.1356 13.1224 33.5558C12.8188 34.326 11.7993 34.1334 10.3027 33.0306C9.21824 32.2254 9.0881 31.8928 9.82555 31.6477C10.6932 31.3676 11.2571 31.4552 12.0379 32.0153ZM17.1785 35.4988C18.2196 36.3391 18.263 37.0568 17.3086 37.3193C16.8097 37.4594 16.6145 37.4244 16.1807 37.0918C15.3131 36.4266 15.0528 35.7614 15.4866 35.2362C15.6818 34.9912 15.9421 34.7986 16.0723 34.7986C16.2024 34.7986 16.7013 35.1137 17.1785 35.4988ZM20.7573 38.8773C22.5359 40.4352 24.0759 42.5533 24.0759 43.4461C24.0759 43.9713 23.1649 44.4264 22.1455 44.4264C21.5381 44.4264 21.408 44.3214 20.7139 43.2185C20.3018 42.5358 19.521 41.398 18.9787 40.6628C18.4365 39.9276 18.0027 39.1749 18.0027 38.9823C18.0027 38.6497 18.9137 38.1421 19.5427 38.1246C19.7379 38.1246 20.2801 38.4572 20.7573 38.8773ZM26.1798 48.1375C26.7654 48.6451 27.5246 50.5006 27.6981 51.8485C27.8499 53.0739 27.5679 53.354 26.1147 53.354C24.6398 53.354 24.553 53.2314 24.0759 50.2381C23.7939 48.5401 23.8807 48.19 24.6832 47.9449C25.5508 47.6998 25.7026 47.7173 26.1798 48.1375ZM27.1992 60.566C27.3944 60.7761 27.5463 61.1612 27.5463 61.4063C27.5463 61.6688 26.7871 63.5944 25.8328 65.7125C24.9001 67.8131 23.7288 70.5964 23.2083 71.8743C22.7094 73.1521 22.1238 74.36 21.9286 74.5525C21.3863 75.0952 20.1934 75.1652 19.4342 74.6926C18.9137 74.36 18.8486 74.2199 18.957 73.6773C19.0872 73.0121 21.2779 67.533 22.2105 65.5375C22.5142 64.8898 22.9914 63.6294 23.23 62.7542C23.8156 60.7411 24.4012 60.1809 25.8978 60.1809C26.657 60.1809 26.9389 60.2684 27.1992 60.566Z" fill="#374151"/>
</svg>
